<?xml version="1.0" standalone="no"?>
<!DOCTYPE svg PUBLIC "-//W3C//DTD SVG 20010904//EN"
 "http://www.w3.org/TR/2001/REC-SVG-20010904/DTD/svg10.dtd">
<svg version="1.0" xmlns="http://www.w3.org/2000/svg"
 width="354.000000pt" height="354.000000pt" viewBox="0 0 354.000000 354.000000"
 preserveAspectRatio="xMidYMid meet">
<metadata>
Created by potrace 1.14, written by Peter Selinger 2001-2017
</metadata>
<g transform="translate(0.000000,354.000000) scale(0.100000,-0.100000)"
fill="#000000" stroke="none">
<path d="M199 2933 c-1 -176 2 -387 6 -391 2 -2 38 -4 80 -3 44 0 74 -3 70 -8
-3 -5 -1 -13 5 -16 6 -4 9 -1 8 7 -4 18 69 23 90 6 10 -8 13 -9 9 -1 -11 17
76 11 100 -8 16 -13 17 -12 5 3 -12 16 -9 17 45 15 35 -1 57 -6 56 -13 -1 -6
5 -11 12 -11 11 0 12 4 4 14 -9 10 -8 13 5 13 9 0 16 -6 16 -12 0 -8 3 -9 8
-3 10 14 154 -3 145 -17 -3 -7 -1 -8 6 -4 16 10 142 -35 134 -47 -3 -6 -1 -7
5 -3 14 8 75 -22 67 -33 -2 -5 3 -8 13 -7 9 0 16 -4 15 -11 -2 -7 3 -10 10 -7
10 4 32 -13 112 -84 19 -17 65 -72 65 -77 0 -3 9 -15 20 -27 20 -22 89 -154
94 -179 1 -8 8 -30 14 -50 20 -58 31 -139 18 -132 -6 3 -5 0 2 -8 6 -7 12 -37
12 -67 0 -40 -3 -51 -12 -46 -10 6 -10 4 -2 -7 6 -8 9 -23 7 -34 -2 -11 -4
-28 -4 -38 0 -9 -3 -16 -7 -13 -4 2 -8 -10 -8 -27 -1 -18 -4 -41 -7 -52 -3
-11 -6 -23 -6 -27 -1 -4 -10 -5 -21 -3 -12 2 -18 0 -15 -6 4 -5 11 -7 16 -4 5
4 9 2 9 -4 0 -11 -22 -63 -30 -71 -3 -3 -6 -11 -8 -19 -11 -53 -160 -229 -182
-216 -9 5 -11 4 -6 -4 9 -15 -20 -44 -35 -35 -7 4 -9 3 -5 -4 8 -13 -104 -81
-178 -108 -47 -17 -49 -17 -62 1 -7 10 -11 22 -7 28 3 6 2 8 -3 4 -8 -4 -66
72 -109 142 -5 9 -13 18 -16 21 -6 5 -108 151 -124 178 -5 10 -12 19 -15 22
-4 3 -32 42 -64 88 -32 46 -59 82 -60 80 -46 -61 -286 -411 -286 -416 0 -4 14
-27 31 -50 17 -23 27 -47 23 -53 -4 -7 -3 -9 3 -6 8 5 205 -263 258 -350 6 -9
18 -26 28 -37 16 -19 21 -32 18 -49 -1 -5 2 -6 7 -3 4 2 29 -27 56 -66 l48
-70 54 4 c32 2 54 -1 54 -7 0 -7 3 -7 8 0 4 6 12 11 17 11 6 1 29 4 52 8 22 3
52 8 65 11 12 3 34 7 48 9 14 1 34 7 45 13 11 6 30 9 42 8 13 -1 21 1 18 4 -5
4 73 39 100 44 15 4 155 82 199 111 32 23 41 25 55 14 14 -11 14 -11 4 3 -10
12 -10 18 -1 27 16 16 31 15 22 0 -4 -8 -3 -10 2 -5 5 5 9 12 9 16 0 15 129
130 138 124 6 -3 7 -1 3 6 -10 15 13 43 27 34 6 -3 7 -1 3 5 -3 6 2 15 11 21
10 6 14 11 9 11 -5 0 -3 7 4 15 7 8 17 12 23 8 6 -3 7 -1 3 6 -9 14 28 63 39
53 5 -4 5 -1 0 7 -5 9 -2 19 9 27 10 7 18 16 19 21 1 4 5 7 8 6 3 -1 5 8 5 20
-1 12 4 22 11 22 6 0 15 4 20 9 5 5 3 6 -4 2 -20 -11 -15 8 6 31 11 12 18 23
15 26 -2 2 9 40 26 83 41 107 71 235 79 342 1 8 6 10 14 6 9 -6 9 -5 0 7 -7 9
-12 48 -12 100 0 46 0 86 -1 89 -1 3 -3 14 -4 25 -12 89 -18 125 -28 160 -6
22 -12 47 -13 55 -2 8 -4 15 -5 15 -1 0 -3 7 -5 15 -15 70 -99 243 -164 338
-83 122 -245 281 -342 337 -167 96 -248 132 -376 164 -130 33 -206 39 -505 40
l-288 2 -1 -88z"/>
<path d="M2919 2998 c-5 -18 -6 -38 -1 -34 7 8 12 36 6 36 -2 0 -4 -1 -5 -2z"/>
<path d="M2916 2907 c3 -10 9 -15 12 -12 3 3 0 11 -7 18 -10 9 -11 8 -5 -6z"/>
<path d="M3030 2876 c0 -2 8 -10 18 -17 15 -13 16 -12 3 4 -13 16 -21 21 -21
13z"/>
<path d="M3109 2863 c-13 -16 -12 -17 4 -4 16 13 21 21 13 21 -2 0 -10 -8 -17
-17z"/>
<path d="M2866 2622 c-3 -5 1 -9 9 -9 8 0 12 4 9 9 -3 4 -7 8 -9 8 -2 0 -6 -4
-9 -8z"/>
<path d="M2910 2596 c0 -2 8 -10 18 -17 15 -13 16 -12 3 4 -13 16 -21 21 -21
13z"/>
<path d="M3159 2598 c-5 -18 -6 -38 -1 -34 7 8 12 36 6 36 -2 0 -4 -1 -5 -2z"/>
<path d="M306 2522 c-2 -4 4 -8 14 -8 10 0 16 4 14 8 -3 4 -9 8 -14 8 -5 0
-11 -4 -14 -8z"/>
<path d="M3150 2516 c0 -2 8 -10 18 -17 15 -13 16 -12 3 4 -13 16 -21 21 -21
13z"/>
<path d="M530 2499 c0 -5 5 -7 10 -4 6 3 10 8 10 11 0 2 -4 4 -10 4 -5 0 -10
-5 -10 -11z"/>
<path d="M595 2461 c-3 -5 -2 -12 3 -15 5 -3 9 1 9 9 0 17 -3 19 -12 6z"/>
<path d="M436 2447 c3 -10 9 -15 12 -12 3 3 0 11 -7 18 -10 9 -11 8 -5 -6z"/>
<path d="M696 2442 c-3 -5 1 -9 9 -9 8 0 12 4 9 9 -3 4 -7 8 -9 8 -2 0 -6 -4
-9 -8z"/>
<path d="M750 2445 c0 -7 30 -13 34 -7 3 4 -4 9 -15 9 -10 1 -19 0 -19 -2z"/>
<path d="M850 2443 c0 -6 8 -17 18 -24 16 -13 16 -13 2 6 -8 11 -16 22 -17 24
-2 2 -3 0 -3 -6z"/>
<path d="M806 2422 c-3 -5 1 -9 9 -9 8 0 12 4 9 9 -3 4 -7 8 -9 8 -2 0 -6 -4
-9 -8z"/>
<path d="M2429 2103 c-13 -16 -12 -17 4 -4 9 7 17 15 17 17 0 8 -8 3 -21 -13z"/>
<path d="M2793 1985 c0 -8 4 -15 9 -15 4 0 8 4 8 9 0 6 -4 12 -8 15 -5 3 -9
-1 -9 -9z"/>
<path d="M2380 1986 c0 -2 8 -10 18 -17 15 -13 16 -12 3 4 -13 16 -21 21 -21
13z"/>
<path d="M3070 1956 c0 -2 8 -10 18 -17 15 -13 16 -12 3 4 -13 16 -21 21 -21
13z"/>
<path d="M2907 1939 c7 -7 15 -10 18 -7 3 3 -2 9 -12 12 -14 6 -15 5 -6 -5z"/>
<path d="M2470 1916 c0 -2 8 -10 18 -17 15 -13 16 -12 3 4 -13 16 -21 21 -21
13z"/>
<path d="M2240 1900 c-9 -6 -10 -10 -3 -10 6 0 15 5 18 10 8 12 4 12 -15 0z"/>
<path d="M1230 1786 c0 -2 7 -7 16 -10 8 -3 12 -2 9 4 -6 10 -25 14 -25 6z"/>
<path d="M870 1756 c0 -2 8 -10 18 -17 15 -13 16 -12 3 4 -13 16 -21 21 -21
13z"/>
<path d="M1020 1666 c0 -2 8 -10 18 -17 15 -13 16 -12 3 4 -13 16 -21 21 -21
13z"/>
<path d="M3039 1653 c-13 -16 -12 -17 4 -4 9 7 17 15 17 17 0 8 -8 3 -21 -13z"/>
<path d="M3100 1666 c0 -2 8 -10 18 -17 15 -13 16 -12 3 4 -13 16 -21 21 -21
13z"/>
<path d="M955 1589 c-4 -6 -5 -12 -2 -15 2 -3 7 2 10 11 7 17 1 20 -8 4z"/>
<path d="M1180 1506 c0 -2 8 -10 18 -17 15 -13 16 -12 3 4 -13 16 -21 21 -21
13z"/>
<path d="M3270 1500 c0 -5 5 -10 10 -10 6 0 10 5 10 10 0 6 -4 10 -10 10 -5 0
-10 -4 -10 -10z"/>
<path d="M1910 1485 c0 -7 30 -13 34 -7 3 4 -4 9 -15 9 -10 1 -19 0 -19 -2z"/>
<path d="M3299 1453 c-13 -16 -12 -17 4 -4 16 13 21 21 13 21 -2 0 -10 -8 -17
-17z"/>
<path d="M1913 1445 c0 -8 4 -12 9 -9 5 3 6 10 3 15 -9 13 -12 11 -12 -6z"/>
<path d="M3030 1436 c0 -2 8 -10 18 -17 15 -13 16 -12 3 4 -13 16 -21 21 -21
13z"/>
<path d="M1879 1373 c-13 -16 -12 -17 4 -4 9 7 17 15 17 17 0 8 -8 3 -21 -13z"/>
<path d="M1250 1340 c0 -5 5 -10 11 -10 5 0 7 5 4 10 -3 6 -8 10 -11 10 -2 0
-4 -4 -4 -10z"/>
<path d="M1116 1293 c-6 -14 -5 -15 5 -6 7 7 10 15 7 18 -3 3 -9 -2 -12 -12z"/>
<path d="M1893 1291 c0 -11 5 -18 9 -15 4 3 5 11 1 19 -7 21 -12 19 -10 -4z"/>
<path d="M2020 1306 c0 -2 8 -10 18 -17 15 -13 16 -12 3 4 -13 16 -21 21 -21
13z"/>
<path d="M1865 1180 c-3 -6 1 -7 9 -4 18 7 21 14 7 14 -6 0 -13 -4 -16 -10z"/>
<path d="M1790 1156 c0 -2 8 -10 18 -17 15 -13 16 -12 3 4 -13 16 -21 21 -21
13z"/>
<path d="M1666 958 c3 -5 10 -6 15 -3 13 9 11 12 -6 12 -8 0 -12 -4 -9 -9z"/>
<path d="M1745 900 c-3 -6 1 -7 9 -4 18 7 21 14 7 14 -6 0 -13 -4 -16 -10z"/>
<path d="M1573 789 c-2 -23 3 -25 10 -4 4 8 3 16 -1 19 -4 3 -9 -4 -9 -15z"/>
<path d="M1545 740 c-3 -6 1 -7 9 -4 18 7 21 14 7 14 -6 0 -13 -4 -16 -10z"/>
</g>
</svg>
